<svg width="327" height="232" viewBox="0 0 327 232" fill="none" xmlns="http://www.w3.org/2000/svg">
<path d="M-19.4169 193.333L-32.4775 154.667H-19.4169H-6.35616L6.70452 193.333L-6.35616 232H-19.4169H-32.4775L-19.4169 193.333Z" fill="white" fill-opacity="0.06"/>
<path d="M28.1239 193.333L15.0632 154.667H28.1239H41.1846L54.2453 193.333L41.1846 232H28.1239H15.0632L28.1239 193.333Z" fill="white" fill-opacity="0.06"/>
<path d="M75.6649 193.333L62.6042 154.667H75.6649H88.7256L101.786 193.333L88.7256 232H75.6649H62.6042L75.6649 193.333Z" fill="white" fill-opacity="0.06"/>
<path d="M123.206 193.333L110.145 154.667H123.206H136.266L149.327 193.333L136.266 232H123.206H110.145L123.206 193.333Z" fill="white" fill-opacity="0.06"/>
<path d="M170.747 193.333L157.686 154.667H170.747H183.807L196.868 193.333L183.807 232H170.747H157.686L170.747 193.333Z" fill="white" fill-opacity="0.06"/>
<path d="M218.288 193.333L205.227 154.667H218.288H231.348L244.409 193.333L231.348 232H218.288H205.227L218.288 193.333Z" fill="white" fill-opacity="0.06"/>
<path d="M265.829 193.333L252.768 154.667H265.829H278.889L291.95 193.333L278.889 232H265.829H252.768L265.829 193.333Z" fill="white" fill-opacity="0.06"/>
<path d="M313.369 193.333L300.309 154.667H313.369H326.43L339.491 193.333L326.43 232H313.369H300.309L313.369 193.333Z" fill="white" fill-opacity="0.06"/>
<path d="M4.09243 116L-8.96826 77.3334H4.09243H17.1531L30.2138 116L17.1531 154.667H4.09243H-8.96826L4.09243 116Z" fill="white" fill-opacity="0.06"/>
<path d="M51.6332 116L38.5725 77.3334H51.6332H64.6939L77.7546 116L64.6939 154.667H51.6332H38.5725L51.6332 116Z" fill="white" fill-opacity="0.06"/>
<path d="M99.1742 116L86.1135 77.3334H99.1742H112.235L125.296 116L112.235 154.667H99.1742H86.1135L99.1742 116Z" fill="white" fill-opacity="0.06"/>
<path d="M146.715 116L133.654 77.3334H146.715H159.776L172.836 116L159.776 154.667H146.715H133.654L146.715 116Z" fill="white" fill-opacity="0.06"/>
<path d="M194.256 116L181.195 77.3334H194.256H207.317L220.377 116L207.317 154.667H194.256H181.195L194.256 116Z" fill="white" fill-opacity="0.06"/>
<path d="M241.797 116L228.736 77.3334H241.797H254.857L267.918 116L254.857 154.667H241.797H228.736L241.797 116Z" fill="white" fill-opacity="0.06"/>
<path d="M289.338 116L276.277 77.3334H289.338H302.398L315.459 116L302.398 154.667H289.338H276.277L289.338 116Z" fill="white" fill-opacity="0.06"/>
<path d="M336.879 116L323.818 77.3334H336.879H349.939L363 116L349.939 154.667H336.879H323.818L336.879 116Z" fill="white" fill-opacity="0.06"/>
<path d="M-19.9393 38.6667L-33 0H-19.9393H-6.87863L6.18206 38.6667L-6.87863 77.3333H-19.9393H-33L-19.9393 38.6667Z" fill="white" fill-opacity="0.06"/>
<path d="M27.6015 38.6667L14.5408 0H27.6015H40.6621L53.7228 38.6667L40.6621 77.3333H27.6015H14.5408L27.6015 38.6667Z" fill="white" fill-opacity="0.06"/>
<path d="M75.1425 38.6667L62.0818 0H75.1425H88.2032L101.264 38.6667L88.2032 77.3333H75.1425H62.0818L75.1425 38.6667Z" fill="white" fill-opacity="0.06"/>
<path d="M122.683 38.6667L109.623 0H122.683H135.744L148.805 38.6667L135.744 77.3333H122.683H109.623L122.683 38.6667Z" fill="white" fill-opacity="0.06"/>
<path d="M170.224 38.6667L157.164 0H170.224H183.285L196.346 38.6667L183.285 77.3333H170.224H157.164L170.224 38.6667Z" fill="white" fill-opacity="0.06"/>
<path d="M217.765 38.6667L204.704 0H217.765H230.826L243.886 38.6667L230.826 77.3333H217.765H204.704L217.765 38.6667Z" fill="white" fill-opacity="0.06"/>
<path d="M265.306 38.6667L252.245 0H265.306H278.367L291.427 38.6667L278.367 77.3333H265.306H252.245L265.306 38.6667Z" fill="white" fill-opacity="0.06"/>
<path d="M312.847 38.6667L299.786 0H312.847H325.908L338.968 38.6667L325.908 77.3333H312.847H299.786L312.847 38.6667Z" fill="white" fill-opacity="0.06"/>
</svg>
