<svg width="44" height="28" viewBox="0 0 44 28" fill="none" xmlns="http://www.w3.org/2000/svg">
<rect width="44" height="28" rx="4" fill="#3563E9"/>
<path d="M17.4595 20V11.194H15.4435V9.57H19.3635V20H17.4595ZM24.5059 20.168C23.9366 20.168 23.3953 20.0653 22.8819 19.86C22.3779 19.6453 21.9439 19.3467 21.5799 18.964C21.2253 18.572 20.9826 18.11 20.8519 17.578L22.5179 16.99C22.6859 17.466 22.9426 17.83 23.2879 18.082C23.6333 18.3247 24.0393 18.446 24.5059 18.446C24.8793 18.446 25.2013 18.376 25.4719 18.236C25.7519 18.096 25.9713 17.8953 26.1299 17.634C26.2886 17.3633 26.3679 17.046 26.3679 16.682C26.3679 16.318 26.2886 16.01 26.1299 15.758C25.9806 15.4967 25.7659 15.296 25.4859 15.156C25.2059 15.016 24.8746 14.946 24.4919 14.946C24.3146 14.946 24.1279 14.9647 23.9319 15.002C23.7453 15.0393 23.5773 15.0953 23.4279 15.17L22.9939 14.26L25.6959 11.18H21.4399V9.57H27.8379V11.068L25.1219 14.246L25.1499 13.532C25.7753 13.5413 26.3213 13.6767 26.7879 13.938C27.2546 14.1993 27.6186 14.5587 27.8799 15.016C28.1413 15.4733 28.2719 16.01 28.2719 16.626C28.2719 17.298 28.1086 17.9047 27.7819 18.446C27.4553 18.978 27.0073 19.398 26.4379 19.706C25.8686 20.014 25.2246 20.168 24.5059 20.168Z" fill="white"/>
</svg>
